<?xml version="1.0" encoding="UTF-8"?>
<svg id="Layer_1" xmlns="http://www.w3.org/2000/svg" version="1.1" viewBox="0 0 3.5527 2.3136">
  <!-- Generator: Adobe Illustrator 29.5.0, SVG Export Plug-In . SVG Version: 2.1.0 Build 137)  -->
  <path d="M1.6889,2.3136h.1751c.0496,0,.0857-.0298.0981-.0782l.0509-.2173c.041-.0137.0795-.0285.1142-.046l.1899.1167c.0397.0249.0882.0211.1217-.0124l.1229-.1229c.0335-.0335.0384-.0844.0112-.1254l-.1154-.1887c.0173-.0348.0335-.0732.0447-.1093l.2197-.0521c.0472-.0112.0757-.0472.0757-.0981v-.1713c0-.0484-.0285-.0844-.0757-.0956l-.2173-.0534c-.0137-.0422-.031-.0795-.0447-.1105l.1154-.1924c.0249-.0422.0236-.0882-.0112-.1229l-.1254-.1229c-.0348-.031-.0782-.0397-.1179-.0149l-.1937.1192c-.0335-.0173-.072-.0323-.1142-.046l-.0509-.2209c-.0124-.0484-.0484-.0782-.0981-.0782h-.1751c-.0496,0-.0857.0298-.0968.0782l-.0521.2185c-.0397.0137-.0807.0285-.1142.0472l-.1924-.1179c-.041-.0249-.0857-.0186-.1192.0149l-.1254.1229c-.0348.0348-.036.0807-.0112.1229l.1154.1924c-.0137.031-.031.0683-.0435.1105l-.2173.0534c-.0484.0112-.077.0472-.077.0956v.1713c0,.0509.0285.0869.077.0981l.2197.0521c.0099.036.0261.0745.0435.1093l-.1154.1887c-.0273.041-.0224.0918.0112.1254l.1229.1229c.0335.0335.0819.0372.1229.0124l.1899-.1167c.0335.0173.0732.0323.1129.046l.0521.2173c.0112.0484.0472.0782.0968.0782h.0002ZM1.777,1.6333c-.1887,0-.3414-.154-.3414-.3414s.1527-.3414.3414-.3414c.1874,0,.3401.154.3401.3414s-.1527.3414-.3401.3414Z"/>
</svg>