<svg xmlns="http://www.w3.org/2000/svg" version="1.1" xmlns:xlink="http://www.w3.org/1999/xlink" width="3.9336" height="2.4434"><svg id="SvgjsSvg1113" xmlns="http://www.w3.org/2000/svg" version="1.1" viewBox="0 0 3.9336 2.4434">
  <!-- Generator: Adobe Illustrator 29.5.0, SVG Export Plug-In . SVG Version: 2.1.0 Build 137)  -->
  <defs>
    <style>
      .st0 {
        fill: #fff;
      }
    </style>
  </defs>
  <path class="st0" d="M3.9306,1.7812c-.0188.2155-.1488.3723-.3585.5129l-.0503-.0515c.0902-.1218.1176-.2557.1176-.3734,0-.3926-.2694-.7328-.7966-.7328-.1054,0-.1639-.0392-.1991-.131-.2623-.7607-1.8513-.52-1.8158.4056-.0118.131-.0468.1832-.1523.2094-.2577.0785-.3864.2236-.3161.5072.0208.0841.1253.2242.1253.2242l-.0602.0808c-.6442-.2084-.5106-1.1608.0987-1.1392C.5818.5605,1.1324.0109,1.7766.0109c.4803,0,.8904.2879,1.1129.7721.6091,0,1.0885.4544,1.041.9982h.0001Z"></path>
</svg><style>@media (prefers-color-scheme: light) { :root { filter: none; } }
@media (prefers-color-scheme: dark) { :root { filter: none; } }
</style></svg>