<?xml version="1.0" encoding="UTF-8"?>
<svg id="Layer_1" xmlns="http://www.w3.org/2000/svg" version="1.1" viewBox="0 0 3.5273 3.1973">
  <!-- Generator: Adobe Illustrator 29.5.0, SVG Export Plug-In . SVG Version: 2.1.0 Build 137)  -->
  <path d="M3.1006.2617c-.1158-.1133-.3584-.0407-.5469.1478l-.3941.3941c-.0554.0554-.085.0653-.154.0628l-1.3918-.0616c-.0443-.0025-.0825.0111-.1109.0394l-.1158.1158c-.0259.0259-.016.0628.0234.0776l1.0987.4163-.4336.5493-.5075-.1503c-.0382-.0111-.0714,0-.1035.032l-.0419.0419c-.0259.0259-.0259.0604,0,.0862l.9262.9262c.0259.0259.0604.0259.0862,0l.0419-.0419c.032-.032.0431-.0653.032-.1035l-.1503-.5075.5493-.4336.4163,1.0987c.0148.0394.0517.0493.0776.0234l.1158-.1158c.0283-.0283.0419-.0665.0394-.1109l-.0616-1.3918c-.0025-.069.0074-.0985.0628-.154l.3941-.3941c.1885-.1885.2611-.4311.1478-.5469l.0004.0004Z"/>
</svg>