<?xml version="1.0" encoding="UTF-8"?>
<svg id="Layer_1" xmlns="http://www.w3.org/2000/svg" version="1.1" viewBox="0 0 3.7773 2.8496">
  <!-- Generator: Adobe Illustrator 29.5.0, SVG Export Plug-In . SVG Version: 2.1.0 Build 137)  -->
  <path d="M1.9862,2.4316c0,.0898.0547.1426.1484.1426h.3379c.0918,0,.1465-.0527.1465-.1426v-.9785c0-.0879-.0547-.1426-.1465-.1426h-.3379c-.0938,0-.1484.0547-.1484.1426v.9785Z"/>
  <path d="M1.1582,2.4316c0,.0898.0547.1426.1484.1426h.3359c.0938,0,.1484-.0527.1484-.1426V.7617c0-.0898-.0547-.1426-.1484-.1426h-.3359c-.0938,0-.1484.0527-.1484.1426,0,0,0,1.6699,0,1.6699Z"/>
  <path d="M2.8143,2.4316c0,.0898.0547.1426.1465.1426h.3379c.0938,0,.1484-.0527.1484-.1426V.416c0-.0898-.0547-.1406-.1484-.1406h-.3379c-.0918,0-.1465.0508-.1465.1406v2.0156Z"/>
  <path d="M.3301,2.4316c0,.0898.0547.1426.1465.1426h.3379c.0938,0,.1484-.0527.1484-.1426v-1.3184c0-.0879-.0547-.1406-.1484-.1406h-.3379c-.0918,0-.1465.0527-.1465.1406,0,0,0,1.3184,0,1.3184Z"/>
</svg>