<?xml version="1.0" encoding="UTF-8"?>
<svg id="Layer_1" xmlns="http://www.w3.org/2000/svg" version="1.1" viewBox="0 0 3.6426 2.7012">
  <!-- Generator: Adobe Illustrator 29.5.0, SVG Export Plug-In . SVG Version: 2.1.0 Build 137)  -->
  <path d="M2.8628,1.6626c-.2661,0-.4808.2129-.4808.479,0,.2624.2147.4771.4808.4771.2624,0,.4771-.2147.4771-.4771,0-.2661-.2147-.479-.4771-.479ZM2.8628,1.9194c.1212,0,.2202.0973.2202.222s-.0991.2202-.2202.2202c-.1266,0-.222-.0954-.222-.2202s.0954-.222.222-.222ZM.7176,1.6626c-.2661,0-.4808.2129-.4808.479,0,.2624.2147.4771.4808.4771.2624,0,.4771-.2147.4771-.4771,0-.2661-.2147-.479-.4771-.479ZM.7176,1.9194c.1212,0,.2202.0973.2202.222s-.0991.2202-.2202.2202c-.1266,0-.222-.0954-.222-.2202s.0954-.222.222-.222ZM1.7893.0825c-.2661,0-.4808.2129-.4808.479,0,.2643.2147.4771.4808.4771.2624,0,.4771-.2129.4771-.4771,0-.2661-.2147-.479-.4771-.479ZM1.7893.3394c.1212,0,.2202.0973.2202.222s-.0991.2202-.2202.2202c-.1266,0-.222-.0954-.222-.2202s.0954-.222.222-.222Z"/>
  <path d="M2.1527,2.0057c-.0735,0-.1339.0624-.1339.1358s.0606.1339.1339.1339.1339-.0606.1339-.1339-.0606-.1358-.1339-.1358ZM1.7893,2.0057c-.0735,0-.1358.0624-.1358.1358s.0624.1339.1358.1339.1339-.0606.1339-.1339-.0606-.1358-.1339-.1358ZM1.4242,2.0057c-.0735,0-.1339.0624-.1339.1358s.0606.1339.1339.1339.1339-.0606.1339-.1339-.0606-.1358-.1339-.1358ZM1.0846,1.3542c-.0735,0-.1339.0606-.1339.1339s.0606.1339.1339.1339.1339-.0606.1339-.1339-.0606-.1339-.1339-.1339ZM1.3526,1.0587c-.0735,0-.1339.0606-.1339.1339s.0606.1339.1339.1339.1339-.0606.1339-.1339-.0606-.1339-.1339-.1339ZM2.226,1.0587c-.0735,0-.1339.0606-.1339.1339s.0606.1339.1339.1339.1339-.0606.1339-.1339-.0606-.1339-.1339-.1339ZM2.494,1.3542c-.0735,0-.1339.0606-.1339.1339s.0606.1339.1339.1339.1339-.0606.1339-.1339-.0606-.1339-.1339-.1339Z"/>
</svg>