<?xml version="1.0" encoding="UTF-8"?>
<svg id="Layer_1" xmlns="http://www.w3.org/2000/svg" version="1.1" viewBox="0 0 4.0352 3.2441">
  <!-- Generator: Adobe Illustrator 29.5.0, SVG Export Plug-In . SVG Version: 2.1.0 Build 137)  -->
  <path d="M3.4676.0571H.5576C.3176.0571.1676.2071.1676.4471v1.8c0,.24.15.39.39.39h.97v.27h-.01c-.0699,0-.14.07-.14.14,0,.08.07.14.14.14h.9901c.08,0,.14-.06.14-.14,0-.0699-.06-.14-.14-.14v-.27h.96c.25,0,.4-.15.4-.39V.4471c0-.24-.15-.39-.4-.39ZM3.5775,2.2371c0,.07-.04.12-.11.12H.5576c-.07,0-.11-.05-.11-.12V.4571c0-.07.04-.12.11-.12h2.91c.07,0,.11.05.11.12v1.78Z"/>
</svg>