<?xml version="1.0" encoding="UTF-8"?>
<svg id="Layer_1" data-name="Layer 1" xmlns="http://www.w3.org/2000/svg" viewBox="0 0 3.248 3.254">
  <defs>
    <style>
      .cls-1 {
        fill: #2e2e2e;
      }
    </style>
  </defs>
  <path class="cls-1" d="M2.852,2.435V.819c0-.13-.074-.193-.165-.193-.04,0-.081.012-.124.035l-1.358.785c-.109.064-.15.111-.15.181s.041.117.15.181l1.358.785c.043.023.084.035.124.035.091,0,.165-.063.165-.193ZM.879,2.619c.119,0,.183-.063.183-.183V.817c0-.119-.064-.183-.183-.183h-.299c-.12,0-.185.058-.185.183v1.618c0,.12.064.183.185.183h.299Z"/>
</svg>