<?xml version="1.0" encoding="UTF-8"?>
<svg id="Layer_1" xmlns="http://www.w3.org/2000/svg" version="1.1" viewBox="0 0 3.9336 2.4434">
  <!-- Generator: Adobe Illustrator 29.5.0, SVG Export Plug-In . SVG Version: 2.1.0 Build 137)  -->
  <path d="M3.5983,1.6865c-.0156.179-.1236.3093-.2978.4261l-.0418-.0428c.0749-.1012.0977-.2124.0977-.3102,0-.3262-.2238-.6088-.6618-.6088-.0876,0-.1362-.0326-.1654-.1088-.1557-.3587-.4088-.5436-.7201-.5436-.4184,0-.7592.3696-.7884.8806-.0098.1088-.0389.1522-.1265.174-.2141.0652-.321.1858-.2626.4214.0173.0699.1041.1863.1041.1863l-.05.0671c-.5352-.1731-.4242-.9644.082-.9464C.8162.6724,1.2736.2158,1.8088.2158c.399,0,.7397.2392.9246.6414.506,0,.9043.3775.8648.8293Z"/>
</svg>