<?xml version="1.0" encoding="UTF-8"?>
<svg id="Layer_1" data-name="Layer 1" xmlns="http://www.w3.org/2000/svg" viewBox="0 0 3.248 3.254">
  <defs>
    <style>
      .cls-1 {
        fill: #2e2e2e;
      }
    </style>
  </defs>
  <path class="cls-1" d="M.118.948v1.357c0,.109.062.162.139.162.033,0,.069-.01.104-.029l1.14-.659c.093-.054.126-.093.126-.152s-.033-.098-.126-.152L.361.815c-.035-.019-.071-.029-.104-.029-.076,0-.139.053-.139.162ZM1.621.948v1.357c0,.109.062.162.139.162.033,0,.069-.01.104-.029l1.14-.659c.091-.054.126-.093.126-.152s-.035-.098-.126-.152l-1.14-.659c-.035-.019-.071-.029-.104-.029-.076,0-.139.053-.139.162Z"/>
</svg>