<?xml version="1.0" encoding="UTF-8"?>
<svg id="Layer_1" xmlns="http://www.w3.org/2000/svg" version="1.1" viewBox="0 0 4.0703 3.2559">
  <!-- Generator: Adobe Illustrator 29.5.0, SVG Export Plug-In . SVG Version: 2.1.0 Build 137)  -->
  <path d="M3.9001,1.54c0,.08-.06.15-.15.15-.05,0-.09-.03-.13-.06l-.22-.18v1.45c0,.22-.14.35-.36.35h-.59v-1.16c0-.08-.05-.13-.13-.13h-.57c-.08,0-.13.05-.13.13v1.16h-.59c-.22,0-.36-.13-.36-.35v-1.46l-.22.19c-.04.03-.08.06-.13.06-.09,0-.15-.07-.15-.15,0-.03.02-.08.05-.11L1.8401.08C1.9001.03,1.9702,0,2.0402,0,2.1002,0,2.1702.03,2.2302.08l.78.65v-.28c0-.07.05-.12.1299-.12h.17c.08,0,.13.05.13.12v.64l.41.34c.03.03.05.08.05.11Z"/>
</svg>