<?xml version="1.0" encoding="UTF-8"?>
<svg xmlns="http://www.w3.org/2000/svg" viewBox="0 0 2.7012 2.7012">
  <circle cx="1.3506" cy="1.3506" r="1.3506"/>
  <g>
    <path fill="#fff" d="M.853,1.1362h-.2334v.6436h-.1289v-.6436h-.2314v-.1045h.5938v.1045Z"/>
    <path fill="#fff" d="M1.5459,1.5947l.1147-.563h.1294l-.1729.748h-.1245l-.1421-.5464-.1455.5464h-.125l-.1724-.748h.1289l.1162.562.1426-.562h.1089l.1416.563Z"/>
    <path fill="#fff" d="M2.1602,1.4922h-.145v.2876h-.1299v-.748h.2632c.0859,0,.1528.019.1997.0581.0469.0386.0703.0947.0703.168,0,.0503-.0122.0918-.0361.126-.0239.0337-.0576.0596-.1011.0776l.168.3115v.0068h-.1392l-.1499-.2876ZM2.0151,1.3872h.1338c.0435,0,.0781-.0112.1025-.0332.0249-.022.0371-.0522.0371-.0908,0-.04-.0112-.0708-.0342-.0928s-.0566-.0332-.1021-.0342h-.1372v.251Z"/>
  </g>
</svg>