<?xml version="1.0" encoding="UTF-8"?>
<svg id="a" xmlns="http://www.w3.org/2000/svg" version="1.1" viewBox="0 0 24 15.9805">
  <!-- Generator: Adobe Illustrator 29.5.0, SVG Export Plug-In . SVG Version: 2.1.0 Build 137)  -->
  <defs>
    <style>
      .st0 {
        fill: #fff;
      }

      .st1 {
        fill: #565c66;
      }
    </style>
  </defs>
  <rect class="st1" x="-1.144" y="5.4155" width="16.7086" height="1.6366" transform="translate(-2.3201 6.0931) rotate(-40)"/>
  <rect class="st1" x="5.3405" y="8.2705" width="17.7771" height="1.6366" transform="translate(-2.5132 11.2726) rotate(-40)"/>
  <rect class="st1" x="18.6619" y="1.9534" width="1.6366" height="14.2285" transform="translate(-2.0013 8.5723) rotate(-23.64)"/>
  <rect class="st0" x=".4292" y="10.5922" width="1.1826" height=".2219" transform="translate(-6.6411 3.16) rotate(-40)"/>
  <rect class="st0" x=".6622" y="10.8699" width="1.1826" height=".2219" transform="translate(-6.7651 3.3748) rotate(-40)"/>
  <rect class="st0" x=".8987" y="11.1516" width="1.1826" height=".2219" transform="translate(-6.8909 3.5927) rotate(-40)"/>
  <rect class="st0" x="1.1357" y="11.4344" width="1.1826" height=".2219" transform="translate(-7.0172 3.8112) rotate(-40)"/>
  <rect class="st0" x="12.1022" y=".7985" width="1.1826" height=".2219" transform="translate(2.3851 8.372) rotate(-40)"/>
  <rect class="st0" x="12.3353" y="1.0763" width="1.1826" height=".2219" transform="translate(2.2611 8.5868) rotate(-40)"/>
  <rect class="st0" x="12.5716" y="1.3582" width="1.1826" height=".2219" transform="translate(2.1352 8.8047) rotate(-40)"/>
  <rect class="st0" x="12.8089" y="1.6408" width="1.1826" height=".2219" transform="translate(2.009 9.0233) rotate(-40)"/>
  <rect class="st0" x="7.0308" y="13.7906" width="1.1826" height=".2219" transform="translate(-7.1525 8.1517) rotate(-40)"/>
  <rect class="st0" x="7.2638" y="14.0684" width="1.1826" height=".2219" transform="translate(-7.2766 8.3665) rotate(-40)"/>
  <rect class="st0" x="7.5003" y="14.35" width="1.1826" height=".2219" transform="translate(-7.4022 8.5844) rotate(-40)"/>
  <rect class="st0" x="7.7374" y="14.6326" width="1.1826" height=".2219" transform="translate(-7.5284 8.8029) rotate(-40)"/>
  <rect class="st0" x="19.514" y="3.322" width="1.1826" height=".2219" transform="translate(2.4971 13.7266) rotate(-40)"/>
  <rect class="st0" x="19.7472" y="3.5998" width="1.1826" height=".2219" transform="translate(2.3731 13.9415) rotate(-40)"/>
  <rect class="st0" x="19.9835" y="3.8815" width="1.1826" height=".2219" transform="translate(2.2473 14.1593) rotate(-40)"/>
  <rect class="st0" x="20.2207" y="4.1643" width="1.1826" height=".2219" transform="translate(2.121 14.3779) rotate(-40)"/>
  <rect class="st0" x="17.3216" y="2.443" width=".2219" height="1.1826" transform="translate(.2462 7.2449) rotate(-23.64)"/>
  <rect class="st0" x="16.9893" y="2.5883" width=".2219" height="1.1826" transform="translate(.16 7.1238) rotate(-23.64)"/>
  <rect class="st0" x="16.6524" y="2.7359" width=".2219" height="1.1826" transform="translate(.0726 7.0011) rotate(-23.64)"/>
  <rect class="st0" x="16.3145" y="2.8838" width=".2219" height="1.1826" transform="translate(-.0151 6.878) rotate(-23.64)"/>
  <rect class="st0" x="22.4147" y="14.0896" width=".2219" height="1.1826" transform="translate(-3.9966 10.2645) rotate(-23.64)"/>
  <rect class="st0" x="22.0824" y="14.2351" width=".2219" height="1.1826" transform="translate(-4.0828 10.1435) rotate(-23.64)"/>
  <rect class="st0" x="21.7455" y="14.3826" width=".2219" height="1.1826" transform="translate(-4.1702 10.0208) rotate(-23.64)"/>
  <rect class="st0" x="21.4075" y="14.5305" width=".2219" height="1.1826" transform="translate(-4.2579 9.8976) rotate(-23.64)"/>
</svg>