<?xml version="1.0" encoding="UTF-8"?>
<svg id="a" xmlns="http://www.w3.org/2000/svg" version="1.1" viewBox="0 0 24 11.067">
  <!-- Generator: Adobe Illustrator 29.5.0, SVG Export Plug-In . SVG Version: 2.1.0 Build 137)  -->
  <defs>
    <style>
      .st0 {
        fill: #848484;
      }

      .st1 {
        fill: #fff;
      }
    </style>
  </defs>
  <rect class="st0" x="3.6457" y="5.9225" width="16.7086" height="2.9073" transform="translate(-1.4377 3.1529) rotate(-14.131)"/>
  <rect class="st1" x="3.913" y="7.9008" width="2.1479" height=".403" transform="translate(-1.8272 1.4627) rotate(-14.131)"/>
  <rect class="st1" x="4.0736" y="8.5395" width="2.1479" height=".403" transform="translate(-1.9783 1.5212) rotate(-14.131)"/>
  <rect class="st1" x="4.2368" y="9.1872" width="2.1479" height=".403" transform="translate(-2.1315 1.5807) rotate(-14.131)"/>
  <rect class="st1" x="4.4004" y="9.8372" width="2.1479" height=".403" transform="translate(-2.2852 1.6403) rotate(-14.131)"/>
  <rect class="st1" x="17.4272" y="4.5144" width="2.1479" height=".403" transform="translate(-.5915 4.6596) rotate(-14.131)"/>
  <rect class="st1" x="17.588" y="5.153" width="2.1479" height=".403" transform="translate(-.7425 4.7182) rotate(-14.131)"/>
  <rect class="st1" x="17.751" y="5.8009" width="2.1479" height=".403" transform="translate(-.8958 4.7775) rotate(-14.131)"/>
  <rect class="st1" x="17.9146" y="6.4508" width="2.1479" height=".403" transform="translate(-1.0495 4.8371) rotate(-14.131)"/>
</svg>