<?xml version="1.0" encoding="UTF-8"?>
<svg id="Layer_1" xmlns="http://www.w3.org/2000/svg" version="1.1" viewBox="0 0 4.0352 2.7415">
  <!-- Generator: Adobe Illustrator 29.5.0, SVG Export Plug-In . SVG Version: 2.1.0 Build 137)  -->
  <path d="M3.0548.5026H.9732c-.1716,0-.279.1073-.279.279v1.2876c0,.1716.1073.279.279.279h.6938v.1932h-.0072c-.0501,0-.1001.0501-.1001.1001,0,.0573.0501.1001.1001.1001h.7082c.0572,0,.1001-.043.1001-.1001,0-.0501-.043-.1001-.1001-.1001v-.1932h.6867c.1788,0,.2862-.1073.2862-.279V.7815c0-.1716-.1073-.279-.2862-.279ZM3.1335,2.062c0,.0501-.0286.0858-.0787.0858H.9732c-.0501,0-.0787-.0357-.0787-.0858V.7887c0-.0501.0286-.0858.0787-.0858h2.0817c.0501,0,.0787.0357.0787.0858v1.2733h0Z"/>
</svg>